<?xml version="1.0" encoding="utf-8"?>
<!-- Generator: Adobe Illustrator 27.5.0, SVG Export Plug-In . SVG Version: 6.00 Build 0)  -->
<svg version="1.1" id="圖層_1" xmlns="http://www.w3.org/2000/svg" xmlns:xlink="http://www.w3.org/1999/xlink" x="0px" y="0px"
	 viewBox="0 0 28.4 28.4" style="enable-background:new 0 0 28.4 28.4;" xml:space="preserve">
<style type="text/css">
	.st0{fill:#EECD2F;}
	.st1{fill:#4A6B8F;}
	.st2{fill:#FFFFFF;}
	.st3{fill:#44B8A1;}
</style>
<g>
	<path class="st0" d="M4.5,24.6c-0.1-0.1-0.2-0.2-0.3-0.3c-5.6-5.5-5.7-14.5-0.2-20c5.5-5.6,14.5-5.7,20-0.2"/>
	<path class="st1" d="M24.1,4.1c5.6,5.5,5.7,14.5,0.2,20c-5.4,5.5-14.2,5.7-19.8,0.4"/>
	<path class="st2" d="M14.2,22.3c4.5,0,8.1-3.6,8.1-8.1c0-4.5-3.6-8.1-8.1-8.1c-4.5,0-8.1,3.6-8.1,8.1C6.1,18.6,9.7,22.3,14.2,22.3z
		"/>
	<path class="st3" d="M14.2,16.9c1.5,0,2.8-1.2,2.8-2.8c0-1.5-1.2-2.8-2.8-2.8c-1.5,0-2.8,1.2-2.8,2.8
		C11.4,15.7,12.6,16.9,14.2,16.9z"/>
</g>
</svg>
